<svg width="44" height="50" viewBox="0 0 44 50" fill="none" xmlns="http://www.w3.org/2000/svg">
<path d="M14.8013 42.2529H28.2693V42.9998C28.2693 46.7184 25.2539 49.7337 21.5353 49.7337C17.8166 49.7337 14.8013 46.7184 14.8013 42.9998V42.2529Z" fill="url(#paint0_linear_1_1561)"/>
<path d="M42.1405 35.111L38.4518 31.4233C37.5456 30.5172 37.0365 29.2884 37.0364 28.007V21.329C37.0364 13.9004 31.7023 7.71807 24.6553 6.40122V3.38783C24.6553 1.66424 23.2573 0.266235 21.5337 0.266235C19.8101 0.266235 18.4121 1.66424 18.4121 3.38783V6.40122C11.366 7.71807 6.03199 13.9004 6.03199 21.329V28.007C6.03199 29.2881 5.52283 30.517 4.61756 31.4233L0.928836 35.112C0.645507 35.3953 0.420756 35.7316 0.267418 36.1018C0.114079 36.472 0.0351567 36.8687 0.0351562 37.2694C0.0351563 38.9543 1.40128 40.3204 3.08623 40.3204H39.9841C41.669 40.3204 43.0352 38.9543 43.0352 37.2694C43.0352 36.4598 42.7134 35.6839 42.1415 35.112L42.1405 35.111Z" fill="url(#paint1_linear_1_1561)"/>
<defs>
<linearGradient id="paint0_linear_1_1561" x1="-5.93451" y1="34.3817" x2="11.4769" y2="59.9742" gradientUnits="userSpaceOnUse">
<stop stop-color="#2699DA"/>
<stop offset="1" stop-color="#6EDCD4"/>
</linearGradient>
<linearGradient id="paint1_linear_1_1561" x1="21.5352" y1="0.266235" x2="37.1628" y2="36.1857" gradientUnits="userSpaceOnUse">
<stop stop-color="#2699DA"/>
<stop offset="1" stop-color="#6EDCD4"/>
</linearGradient>
</defs>
</svg>
