<svg width="101" height="101" viewBox="0 0 101 101" fill="none" xmlns="http://www.w3.org/2000/svg">
<circle cx="50.5" cy="50.5" r="50.5" fill="#DBEFF1"/>
<mask id="mask0_1_1634" style="mask-type:alpha" maskUnits="userSpaceOnUse" x="6" y="6" width="90" height="89">
<circle cx="51" cy="50.5" r="44.5" fill="#D9D9D9"/>
</mask>
<g mask="url(#mask0_1_1634)">
<path d="M28.8777 35.1821C28.8777 37.3018 29.1733 39.4102 29.7534 41.4462C29.9208 42.043 30.4674 42.4502 31.0866 42.4558L72.3689 42.4446C72.9825 42.4446 73.5236 42.0374 73.6965 41.4406C74.6582 38.0427 74.8195 34.4683 74.1679 30.9976C73.5163 27.527 72.0694 24.2545 69.9408 21.4368C67.8121 18.6192 65.0596 16.333 61.8992 14.7577C58.7387 13.1824 55.2563 12.3607 51.7249 12.3572C45.6693 12.3601 39.8622 14.7659 35.5787 19.0463C31.2951 23.3268 28.8851 29.132 28.8777 35.1877V35.1821Z" fill="#356287"/>
<path d="M34.3886 67.2832C34.3588 67.2859 34.329 67.2897 34.2994 67.2944C20.8733 68.1143 10.3142 79.5045 10.3142 93.4438V99.5237C10.3142 99.8887 10.4578 100.239 10.7138 100.498C10.9698 100.757 11.3173 100.904 11.6808 100.907H91.5737C91.7556 100.908 91.9358 100.872 92.104 100.803C92.2721 100.733 92.4249 100.631 92.5535 100.502C92.6821 100.373 92.784 100.219 92.8533 100.051C92.9225 99.8817 92.9578 99.7008 92.9571 99.5182V93.4382C92.9571 79.5045 82.3924 68.1143 68.9719 67.2944C68.9404 67.2895 68.9088 67.2858 68.8771 67.2832H34.3886Z" fill="#1A98C0"/>
<path d="M42.0415 56.094V72.7051L51.775 77.5691L61.4081 72.0023V56.094H42.0415Z" fill="#FFEBD2"/>
<path d="M28.8777 35.1821C28.8777 37.3018 29.1733 39.4102 29.7534 41.4462C29.9208 42.043 30.4674 42.4502 31.0866 42.4558H34.0261C33.7271 42.4524 33.4371 42.3522 33.1998 42.1702C32.9625 41.9882 32.7905 41.7341 32.7097 41.4462C32.1264 39.4092 31.8298 37.3009 31.8284 35.1821C31.8405 29.3863 34.0554 23.8118 38.0243 19.5882C41.9932 15.3645 47.4193 12.8075 53.2031 12.4353C52.7122 12.4018 52.227 12.3572 51.7249 12.3572C45.6702 12.3601 39.864 14.7651 35.5806 19.0444C31.2972 23.3236 28.8865 29.1274 28.8777 35.1821Z" fill="#2C5170"/>
<path d="M29.363 44.1292C29.363 47.6042 32.0405 50.5327 35.4207 50.5327C35.7888 50.5327 36.1458 50.4936 36.5084 50.4211V37.8428C36.1504 37.769 35.7862 37.7298 35.4207 37.7257C32.0349 37.7257 29.363 40.6653 29.363 44.1403V44.1292Z" fill="#FFDFBA"/>
<path d="M74.087 44.1292C74.087 47.6042 71.4152 50.5327 68.0294 50.5327C67.6668 50.5327 67.3043 50.4936 66.9473 50.4211V37.8428C67.3043 37.7759 67.6668 37.7257 68.0294 37.7257C71.4152 37.7257 74.087 40.6653 74.087 44.1403V44.1292Z" fill="#FFDFBA"/>
<path d="M42.0415 56.094V62.0066C44.8026 63.8808 48.1326 64.9797 51.7248 64.9797C55.317 64.9797 58.647 63.8808 61.4081 62.0066V56.094H42.0415Z" fill="#FFDFBA"/>
<path d="M47.3463 26.2351C47.0009 26.2602 46.6775 26.4139 46.44 26.6659C46.2024 26.9179 46.068 27.2498 46.0634 27.5961C46.0516 29.5244 45.2781 31.3699 43.9114 32.7303C42.5447 34.0907 40.6957 34.8557 38.7674 34.8586H35.8836C35.5187 34.8601 35.1691 35.0057 34.911 35.2637C34.653 35.5218 34.5073 35.8714 34.5059 36.2363V44.8487C34.5059 54.3424 42.209 62.0288 51.725 62.0288C61.241 62.0288 68.9497 54.3424 68.9497 44.8487V36.2363C68.9482 35.8704 68.8018 35.52 68.5425 35.2618C68.2833 35.0036 67.9323 34.8586 67.5663 34.8586H57.487C53.1474 34.8586 49.4826 31.6792 48.8244 27.4009C48.7707 27.0559 48.5884 26.744 48.3143 26.5278C48.0401 26.3115 47.6943 26.207 47.3463 26.2351Z" fill="#FFEBD2"/>
<path d="M34.3886 67.2832C34.3588 67.2859 34.329 67.2897 34.2994 67.2944C20.8733 68.1199 10.3142 79.5045 10.3142 93.4438V99.5237C10.3142 99.8887 10.4578 100.239 10.7138 100.498C10.9698 100.757 11.3173 100.904 11.6808 100.907H14.6371C14.4562 100.906 14.2772 100.87 14.1103 100.8C13.9434 100.729 13.792 100.627 13.6645 100.498C13.5371 100.369 13.4362 100.216 13.3677 100.048C13.2991 99.8798 13.2642 99.6998 13.2649 99.5182V93.4382C13.2649 79.5045 23.824 68.1143 37.2501 67.2944C37.2797 67.2897 37.3095 67.2859 37.3394 67.2832H34.3886Z" fill="#1391B9"/>
<path d="M39.6822 62.0958C39.3254 62.1041 38.9857 62.25 38.7339 62.503L33.5799 67.6514C33.3217 67.9107 33.1768 68.2616 33.1768 68.6275C33.1768 68.9934 33.3217 69.3444 33.5799 69.6037L45.6004 81.613C45.8596 81.8712 46.2106 82.0161 46.5765 82.0161C46.9424 82.0161 47.2934 81.8712 47.5527 81.613L51.725 77.4463L55.8917 81.613C56.0203 81.7425 56.1732 81.8453 56.3417 81.9155C56.5102 81.9856 56.6909 82.0217 56.8734 82.0217C57.0559 82.0217 57.2366 81.9856 57.4051 81.9155C57.5736 81.8453 57.7265 81.7425 57.8551 81.613L69.8756 69.6037C70.1338 69.3444 70.2787 68.9934 70.2787 68.6275C70.2787 68.2616 70.1338 67.9107 69.8756 67.6514L64.7216 62.503C64.5915 62.3724 64.4367 62.2691 64.2662 62.1992C64.0957 62.1292 63.913 62.0941 63.7287 62.0958C63.368 62.1012 63.0238 62.2473 62.7693 62.503L51.725 73.525L40.6862 62.5085C40.5549 62.3766 40.3982 62.2725 40.2257 62.2025C40.0532 62.1326 39.8683 62.0926 39.6822 62.0958Z" fill="#84CCE3"/>
<path d="M26.6075 89.1209C26.398 89.1122 26.189 89.1483 25.9945 89.2266C25.8 89.3049 25.6243 89.4237 25.4792 89.5751C25.3341 89.7265 25.2229 89.9071 25.153 90.1048C25.0831 90.3025 25.056 90.5128 25.0736 90.7218V100.907H28.0131V90.7218C28.0299 90.524 28.0066 90.3249 27.9447 90.1363C27.8828 89.9477 27.7836 89.7735 27.6529 89.6241C27.5222 89.4747 27.3628 89.3532 27.1842 89.2667C27.0055 89.1803 26.8057 89.1307 26.6075 89.1209ZM76.7923 89.1209C76.5823 89.1114 76.3727 89.1468 76.1775 89.2248C75.9823 89.3027 75.806 89.4214 75.6603 89.5729C75.5146 89.7244 75.4029 89.9053 75.3326 90.1034C75.2623 90.3015 75.2351 90.5123 75.2528 90.7218V100.907H78.1923V90.7218C78.2091 90.524 78.1858 90.3249 78.1239 90.1363C78.062 89.9477 77.9628 89.7735 77.8321 89.6241C77.7015 89.4747 77.542 89.3532 77.3634 89.2667C77.1847 89.1803 76.9905 89.1307 76.7923 89.1209Z" fill="#3385C8"/>
<path d="M35.8836 34.853C35.5177 34.8545 35.1673 35.0009 34.9091 35.2602C34.6508 35.5194 34.5059 35.8704 34.5059 36.2364V44.8487C34.5095 47.2973 35.0362 49.7168 36.0507 51.9454C37.0651 54.1739 38.5439 56.1601 40.3881 57.7708C42.2323 59.3816 44.3993 60.5798 46.7441 61.2853C49.0888 61.9907 51.5572 62.1872 53.984 61.8614C49.4248 61.297 45.2288 59.0864 42.1851 55.6452C39.1415 52.204 37.4599 47.7694 37.4566 43.1753V34.853H35.8836Z" fill="#FFF3E4"/>
</g>
</svg>
