<svg width="83" height="83" viewBox="0 0 83 83" fill="none" xmlns="http://www.w3.org/2000/svg">
<path d="M18.8777 23.1821C18.8777 25.3018 19.1733 27.4102 19.7534 29.4462C19.9208 30.043 20.4674 30.4502 21.0866 30.4558L62.3689 30.4446C62.9825 30.4446 63.5236 30.0374 63.6965 29.4406C64.6582 26.0427 64.8195 22.4683 64.1679 18.9976C63.5163 15.527 62.0694 12.2545 59.9408 9.43681C57.8121 6.61918 55.0596 4.33303 51.8992 2.75771C48.7387 1.18238 45.2563 0.360722 41.7249 0.357178C35.6693 0.360129 29.8622 2.7659 25.5787 7.04633C21.2951 11.3268 18.8851 17.132 18.8777 23.1877V23.1821Z" fill="#356287"/>
<path d="M24.3886 55.2832C24.3588 55.2859 24.329 55.2897 24.2994 55.2944C10.8733 56.1143 0.314209 67.5045 0.314209 81.4438V87.5237C0.314197 87.8887 0.45782 88.2388 0.713791 88.4979C0.969762 88.757 1.31734 88.9041 1.68081 88.9071H81.5737C81.7556 88.9078 81.9358 88.8724 82.104 88.8028C82.2721 88.7333 82.4249 88.631 82.5535 88.5019C82.6821 88.3728 82.784 88.2194 82.8533 88.0505C82.9225 87.8817 82.9578 87.7008 82.9571 87.5182V81.4382C82.9571 67.5045 72.3924 56.1143 58.9719 55.2944C58.9404 55.2895 58.9088 55.2858 58.8771 55.2832H24.3886Z" fill="#1A98C0"/>
<path d="M32.0415 44.094V60.7051L41.775 65.5691L51.4081 60.0023V44.094H32.0415Z" fill="#FFEBD2"/>
<path d="M18.8777 23.1821C18.8777 25.3018 19.1733 27.4102 19.7534 29.4462C19.9208 30.043 20.4674 30.4502 21.0866 30.4558H24.0261C23.7271 30.4524 23.4371 30.3522 23.1998 30.1702C22.9625 29.9882 22.7905 29.7341 22.7097 29.4462C22.1264 27.4092 21.8298 25.3009 21.8284 23.1821C21.8405 17.3863 24.0554 11.8118 28.0243 7.58816C31.9932 3.36449 37.4193 0.807491 43.2031 0.435269C42.7122 0.401801 42.227 0.357178 41.7249 0.357178C35.6702 0.360126 29.864 2.76513 25.5806 7.04436C21.2972 11.3236 18.8865 17.1274 18.8777 23.1821Z" fill="#2C5170"/>
<path d="M19.363 32.1292C19.363 35.6042 22.0405 38.5327 25.4207 38.5327C25.7888 38.5327 26.1458 38.4936 26.5084 38.4211V25.8428C26.1504 25.769 25.7862 25.7298 25.4207 25.7257C22.0349 25.7257 19.363 28.6653 19.363 32.1403V32.1292Z" fill="#FFDFBA"/>
<path d="M64.087 32.1292C64.087 35.6042 61.4152 38.5327 58.0294 38.5327C57.6668 38.5327 57.3043 38.4936 56.9473 38.4211V25.8428C57.3043 25.7759 57.6668 25.7257 58.0294 25.7257C61.4152 25.7257 64.087 28.6653 64.087 32.1403V32.1292Z" fill="#FFDFBA"/>
<path d="M32.0415 44.094V50.0066C34.8026 51.8808 38.1326 52.9797 41.7248 52.9797C45.317 52.9797 48.647 51.8808 51.4081 50.0066V44.094H32.0415Z" fill="#FFDFBA"/>
<path d="M37.3463 14.2351C37.0009 14.2602 36.6775 14.4139 36.44 14.6659C36.2024 14.9179 36.068 15.2498 36.0634 15.5961C36.0516 17.5244 35.2781 19.3699 33.9114 20.7303C32.5447 22.0907 30.6957 22.8557 28.7674 22.8586H25.8836C25.5187 22.8601 25.1691 23.0057 24.911 23.2637C24.653 23.5218 24.5073 23.8714 24.5059 24.2363V32.8487C24.5059 42.3424 32.209 50.0288 41.725 50.0288C51.241 50.0288 58.9497 42.3424 58.9497 32.8487V24.2363C58.9482 23.8704 58.8018 23.52 58.5425 23.2618C58.2833 23.0036 57.9323 22.8586 57.5663 22.8586H47.487C43.1474 22.8586 39.4826 19.6792 38.8244 15.4009C38.7707 15.0559 38.5884 14.744 38.3143 14.5278C38.0401 14.3115 37.6943 14.207 37.3463 14.2351Z" fill="#FFEBD2"/>
<path d="M24.3886 55.2832C24.3588 55.2859 24.329 55.2897 24.2994 55.2944C10.8733 56.1199 0.314209 67.5045 0.314209 81.4438V87.5237C0.314197 87.8887 0.45782 88.2388 0.713791 88.4979C0.969762 88.7571 1.31734 88.9041 1.68081 88.9071H4.63712C4.45619 88.9063 4.27718 88.8698 4.1103 88.7996C3.94343 88.7294 3.79196 88.6269 3.66454 88.4979C3.53712 88.369 3.43625 88.2161 3.36769 88.0479C3.29912 87.8798 3.26421 87.6998 3.26494 87.5182V81.4382C3.26494 67.5045 13.824 56.1143 27.2501 55.2944C27.2797 55.2897 27.3095 55.2859 27.3394 55.2832H24.3886Z" fill="#1391B9"/>
<path d="M29.6822 50.0958C29.3254 50.1041 28.9857 50.25 28.7339 50.503L23.5799 55.6514C23.3217 55.9107 23.1768 56.2616 23.1768 56.6275C23.1768 56.9934 23.3217 57.3444 23.5799 57.6037L35.6004 69.613C35.8596 69.8712 36.2106 70.0161 36.5765 70.0161C36.9424 70.0161 37.2934 69.8712 37.5527 69.613L41.725 65.4463L45.8917 69.613C46.0203 69.7425 46.1732 69.8453 46.3417 69.9155C46.5102 69.9856 46.6909 70.0217 46.8734 70.0217C47.0559 70.0217 47.2366 69.9856 47.4051 69.9155C47.5736 69.8453 47.7265 69.7425 47.8551 69.613L59.8756 57.6037C60.1338 57.3444 60.2787 56.9934 60.2787 56.6275C60.2787 56.2616 60.1338 55.9107 59.8756 55.6514L54.7216 50.503C54.5915 50.3724 54.4367 50.2691 54.2662 50.1992C54.0957 50.1292 53.913 50.0941 53.7287 50.0958C53.368 50.1012 53.0238 50.2473 52.7693 50.503L41.725 61.525L30.6862 50.5085C30.5549 50.3766 30.3982 50.2725 30.2257 50.2025C30.0532 50.1326 29.8683 50.0926 29.6822 50.0958Z" fill="#84CCE3"/>
<path d="M16.6075 77.1209C16.398 77.1122 16.189 77.1483 15.9945 77.2266C15.8 77.3049 15.6243 77.4237 15.4792 77.5751C15.3341 77.7265 15.2229 77.9071 15.153 78.1048C15.0831 78.3025 15.056 78.5128 15.0736 78.7218V88.9071H18.0131V78.7218C18.0299 78.524 18.0066 78.3249 17.9447 78.1363C17.8828 77.9477 17.7836 77.7735 17.6529 77.6241C17.5222 77.4747 17.3628 77.3532 17.1842 77.2667C17.0055 77.1803 16.8057 77.1307 16.6075 77.1209ZM66.7923 77.1209C66.5823 77.1114 66.3727 77.1468 66.1775 77.2248C65.9823 77.3027 65.806 77.4214 65.6603 77.5729C65.5146 77.7244 65.4029 77.9053 65.3326 78.1034C65.2623 78.3015 65.2351 78.5123 65.2528 78.7218V88.9071H68.1923V78.7218C68.2091 78.524 68.1858 78.3249 68.1239 78.1363C68.062 77.9477 67.9628 77.7735 67.8321 77.6241C67.7015 77.4747 67.542 77.3532 67.3634 77.2667C67.1847 77.1803 66.9905 77.1307 66.7923 77.1209Z" fill="#3385C8"/>
<path d="M25.8836 22.853C25.5177 22.8545 25.1673 23.0009 24.9091 23.2602C24.6508 23.5194 24.5059 23.8704 24.5059 24.2364V32.8487C24.5095 35.2973 25.0362 37.7168 26.0507 39.9454C27.0651 42.1739 28.5439 44.1601 30.3881 45.7708C32.2323 47.3816 34.3993 48.5798 36.7441 49.2853C39.0888 49.9907 41.5572 50.1872 43.984 49.8614C39.4248 49.297 35.2288 47.0864 32.1851 43.6452C29.1415 40.204 27.4599 35.7694 27.4566 31.1753V22.853H25.8836Z" fill="#FFF3E4"/>
</svg>
