<svg width="24" height="15" viewBox="0 0 24 15" fill="none" xmlns="http://www.w3.org/2000/svg">
<path d="M13.1747 13.4171C13.2908 13.3062 13.3887 13.1835 13.474 13.056L22.3689 4.5013C23.2363 3.66638 23.2367 2.31324 22.3685 1.47791C21.5007 0.642988 20.0933 0.642988 19.2247 1.47791L11.5643 8.84577L3.86355 1.4407C2.9962 0.605378 1.58835 0.605378 0.71977 1.4407C0.286303 1.85836 0.0693626 2.40508 0.0693625 2.9518C0.0693625 3.49852 0.286304 4.04643 0.720596 4.4629L9.65466 13.056C9.73987 13.1835 9.83743 13.3058 9.95393 13.4171C10.3985 13.8446 10.9822 14.0497 11.5643 14.0402C12.1468 14.0501 12.7313 13.8446 13.1747 13.4171Z" fill="#1AA5C0"/>
</svg>
